name rise36.2859peak64.2979fall75.1499.mot
datacolumns 19
datarows 21
range 21.71825100000000 21.75158700000000
endheader
time	ground_force1_vx	ground_force1_vy	ground_force1_vz	ground_force1_px	ground_force1_py	ground_force1_pz	ground_force2_vx	ground_force2_vy	ground_force2_vz	ground_force2_px	ground_force2_py	ground_force2_pz	ground_torque1_x	ground_torque1_y	ground_torque1_z	ground_torque2_x	ground_torque2_y	ground_torque2_z	
21.71825100000000	51.67994800000000	765.40198899999996	63.67268400000000	0.38869900000000	0.00000000000000	0.11160800000000	0.00000000000000	0.00000000000000	0.00000000000000	0.00000000000000	0.00000000000000	0.00000000000000	0.00000000000000	36.35821700000000	0.00000000000000	0.00000000000000	0.00000000000000	0.00000000000000	
21.71991300000000	50.82332900000000	766.91360999999995	63.78231800000000	0.38715200000000	0.00000000000000	0.11169300000000	0.00000000000000	0.00000000000000	0.00000000000000	0.00000000000000	0.00000000000000	0.00000000000000	0.00000000000000	36.44974600000000	0.00000000000000	0.00000000000000	0.00000000000000	0.00000000000000	
21.72158500000000	49.97354900000000	768.30220699999995	63.88700000000000	0.38560500000000	0.00000000000000	0.11178000000000	0.00000000000000	0.00000000000000	0.00000000000000	0.00000000000000	0.00000000000000	0.00000000000000	0.00000000000000	36.53721400000000	0.00000000000000	0.00000000000000	0.00000000000000	0.00000000000000	
21.72324800000000	49.13172500000000	769.56886899999995	63.98662900000000	0.38405800000000	0.00000000000000	0.11186700000000	0.00000000000000	0.00000000000000	0.00000000000000	0.00000000000000	0.00000000000000	0.00000000000000	0.00000000000000	36.62047800000000	0.00000000000000	0.00000000000000	0.00000000000000	0.00000000000000	
21.72492800000000	48.29889700000000	770.71480799999995	64.08105700000000	0.38251200000000	0.00000000000000	0.11195600000000	0.00000000000000	0.00000000000000	0.00000000000000	0.00000000000000	0.00000000000000	0.00000000000000	0.00000000000000	36.69936700000000	0.00000000000000	0.00000000000000	0.00000000000000	0.00000000000000	
21.72658000000000	47.47602800000000	771.74135699999999	64.17009899999999	0.38097000000000	0.00000000000000	0.11204600000000	0.00000000000000	0.00000000000000	0.00000000000000	0.00000000000000	0.00000000000000	0.00000000000000	0.00000000000000	36.77369100000000	0.00000000000000	0.00000000000000	0.00000000000000	0.00000000000000	
21.72825500000000	46.66400300000000	772.64998100000003	64.25353300000000	0.37943200000000	0.00000000000000	0.11213600000000	0.00000000000000	0.00000000000000	0.00000000000000	0.00000000000000	0.00000000000000	0.00000000000000	0.00000000000000	36.84324400000000	0.00000000000000	0.00000000000000	0.00000000000000	0.00000000000000	
21.72992000000000	45.86363000000000	773.44227599999999	64.33111000000000	0.37789800000000	0.00000000000000	0.11222700000000	0.00000000000000	0.00000000000000	0.00000000000000	0.00000000000000	0.00000000000000	0.00000000000000	0.00000000000000	36.90780300000000	0.00000000000000	0.00000000000000	0.00000000000000	0.00000000000000	
21.73158100000000	45.07564400000000	774.11997799999995	64.40255700000000	0.37637000000000	0.00000000000000	0.11231800000000	0.00000000000000	0.00000000000000	0.00000000000000	0.00000000000000	0.00000000000000	0.00000000000000	0.00000000000000	36.96713700000000	0.00000000000000	0.00000000000000	0.00000000000000	0.00000000000000	
21.73324600000000	44.30070400000000	774.68495700000005	64.46758000000000	0.37485000000000	0.00000000000000	0.11241000000000	0.00000000000000	0.00000000000000	0.00000000000000	0.00000000000000	0.00000000000000	0.00000000000000	0.00000000000000	37.02101000000000	0.00000000000000	0.00000000000000	0.00000000000000	0.00000000000000	
21.73491600000000	43.53939800000000	775.13923000000000	64.52587400000000	0.37333700000000	0.00000000000000	0.11250300000000	0.00000000000000	0.00000000000000	0.00000000000000	0.00000000000000	0.00000000000000	0.00000000000000	0.00000000000000	37.06918100000000	0.00000000000000	0.00000000000000	0.00000000000000	0.00000000000000	
21.73658900000000	42.79224200000000	775.48495100000002	64.57712300000000	0.37183200000000	0.00000000000000	0.11259500000000	0.00000000000000	0.00000000000000	0.00000000000000	0.00000000000000	0.00000000000000	0.00000000000000	0.00000000000000	37.11141200000000	0.00000000000000	0.00000000000000	0.00000000000000	0.00000000000000	
21.73824900000000	42.05968300000000	775.72441900000001	64.62100800000000	0.37033700000000	0.00000000000000	0.11268800000000	0.00000000000000	0.00000000000000	0.00000000000000	0.00000000000000	0.00000000000000	0.00000000000000	0.00000000000000	37.14746800000000	0.00000000000000	0.00000000000000	0.00000000000000	0.00000000000000	
21.73991500000000	41.34210100000000	775.86007600000005	64.65721000000001	0.36885300000000	0.00000000000000	0.11278000000000	0.00000000000000	0.00000000000000	0.00000000000000	0.00000000000000	0.00000000000000	0.00000000000000	0.00000000000000	37.17712400000000	0.00000000000000	0.00000000000000	0.00000000000000	0.00000000000000	
21.74158100000000	40.63981300000000	775.89450199999999	64.68541700000000	0.36737900000000	0.00000000000000	0.11287200000000	0.00000000000000	0.00000000000000	0.00000000000000	0.00000000000000	0.00000000000000	0.00000000000000	0.00000000000000	37.20016400000000	0.00000000000000	0.00000000000000	0.00000000000000	0.00000000000000	
21.74325400000000	39.95307200000000	775.83041900000001	64.70532700000000	0.36591800000000	0.00000000000000	0.11296400000000	0.00000000000000	0.00000000000000	0.00000000000000	0.00000000000000	0.00000000000000	0.00000000000000	0.00000000000000	37.21638500000000	0.00000000000000	0.00000000000000	0.00000000000000	0.00000000000000	
21.74492100000000	39.28207000000000	775.67068400000005	64.71665100000000	0.36446900000000	0.00000000000000	0.11305600000000	0.00000000000000	0.00000000000000	0.00000000000000	0.00000000000000	0.00000000000000	0.00000000000000	0.00000000000000	37.22560200000000	0.00000000000000	0.00000000000000	0.00000000000000	0.00000000000000	
21.74658800000000	38.62694500000000	775.41828499999997	64.71912000000000	0.36303300000000	0.00000000000000	0.11314600000000	0.00000000000000	0.00000000000000	0.00000000000000	0.00000000000000	0.00000000000000	0.00000000000000	0.00000000000000	37.22764800000000	0.00000000000000	0.00000000000000	0.00000000000000	0.00000000000000	
21.74825500000000	37.98777900000000	775.07633999999996	64.71248700000000	0.36161000000000	0.00000000000000	0.11323600000000	0.00000000000000	0.00000000000000	0.00000000000000	0.00000000000000	0.00000000000000	0.00000000000000	0.00000000000000	37.22237600000000	0.00000000000000	0.00000000000000	0.00000000000000	0.00000000000000	
21.74992100000000	37.36460100000000	774.64809100000002	64.69652800000000	0.36020300000000	0.00000000000000	0.11332500000000	0.00000000000000	0.00000000000000	0.00000000000000	0.00000000000000	0.00000000000000	0.00000000000000	0.00000000000000	37.20966300000000	0.00000000000000	0.00000000000000	0.00000000000000	0.00000000000000	
21.75158700000000	36.75739200000000	774.13689599999998	64.67105100000001	0.35881000000000	0.00000000000000	0.11341300000000	0.00000000000000	0.00000000000000	0.00000000000000	0.00000000000000	0.00000000000000	0.00000000000000	0.00000000000000	37.18940800000000	0.00000000000000	0.00000000000000	0.00000000000000	0.00000000000000	
